<svg width="188" height="209" viewBox="0 0 188 209" fill="none" xmlns="http://www.w3.org/2000/svg">
<path d="M177.464 0.828125L136.424 13.9864L153.04 1.58734C142.55 4.20047 129.297 9.31195 112.641 17.5618L85.4541 48.809L95.1035 26.9814C85.7744 32.7021 75.8848 40.2016 66.3555 48.9855L60.0293 77.368L58.668 56.357C49.2588 65.8914 40.4102 76.4852 33.083 87.6527C25.3835 99.35 19.3656 111.709 16.3507 124.025L5.09169 115.726C6.10068 126.187 9.21972 135.28 14.3367 143.623L0.87558 139.077C3.93456 149.45 8.93544 156.159 17.3917 161.588C12.6551 176.287 10.4329 191.648 8.04658 206.965L15.4138 208.333C23.9581 114.446 84.2529 54.5914 138.746 28.0717L141.509 35.7434C92.7812 59.8 54.9043 100.409 35.085 158.94C42.332 158.984 49.4189 158.013 55.9853 156.159L57.9473 129.277L63.1924 153.775C67.5566 152.01 71.5605 149.891 75.124 147.419L66.8359 128.218L79.9687 143.579C83.1719 140.754 85.8144 137.576 87.8164 134.089C99.9883 113.122 112.721 92.2875 137.785 74.852L119.487 67.7012L147.555 68.6281C152.119 66.068 156.924 62.934 160.567 59.9766L140.668 58.2109L170.577 50.4422C172.899 47.882 175.062 45.1895 177.023 42.4969C183.95 32.8124 188.635 22.7307 187.514 13.5627C186.993 8.97648 184.511 4.66394 180.467 2.24945C179.466 1.67562 178.385 1.16801 177.464 0.828125Z" fill="#333333"/>
</svg>
